<svg width="126" height="32" viewBox="0 0 126 32" fill="none" xmlns="http://www.w3.org/2000/svg">
<path d="M18.3985 3.19047L16.4196 9.69147C16.4196 9.69147 13.2263 8.32181 10.1444 9.09143C10.1444 9.09143 7.96421 9.87246 8.87751 11.3709C9.78918 12.8694 15.3067 13.2379 15.3067 13.2379C15.3067 13.2379 10.9742 18.366 10.4864 19.3296C10.4864 19.3296 3.52208 18.3725 1.5989 15.6528C1.5989 15.6528 0.582482 14.6402 0.122556 12.1275C0.122556 12.1275 -0.602523 6.52168 4.3159 4.09216C9.23432 1.66265 14.2051 2.19094 18.3985 3.19047Z" fill="white"/>
<path d="M5.40454 28.3837C5.40454 28.3837 8.24593 22.5414 8.69276 22.2219C8.69276 22.2219 4.97407 21.6251 2.80047 20.0989L0 26.427C0 26.427 2.3831 27.9255 5.40454 28.3837Z" fill="white"/>
<path d="M94.437 28.2175L105.981 2.28198H114.548L126 28.1784L117.099 28.1751L110.279 10.7478L109.988 10.7462H109.922L103.251 28.2175H94.437Z" fill="white"/>
<path d="M110.261 14.6841L104.051 31.7983L116.556 31.8179L110.261 14.6841Z" fill="#FD8700"/>
<path d="M26.5069 3.24585C26.5069 3.24585 13.0349 11.0105 5.07373 28.8797C5.07373 28.8797 7.05256 29.3265 7.99205 29.2922C8.93154 29.258 8.177 22.1048 26.5069 3.24585Z" fill="#FD8700"/>
<path d="M30.7676 0.817871L26.1438 5.21709L26.9376 5.68832L30.7676 0.817871Z" fill="#FD8700"/>
<path d="M25.6395 5.68823L22.6934 8.98031L23.9848 9.67329L26.507 6.18066L25.6395 5.68823Z" fill="#FD8700"/>
<path d="M22.0962 9.77441L18.4888 14.3823L20.3907 15.4716L23.5447 10.4625L22.0962 9.77441Z" fill="#FD8700"/>
<path d="M17.9454 15.3608C17.9454 15.3608 14.7767 20.1351 14.5459 20.8427L17.2547 21.6792C17.2547 21.6792 18.9782 17.4642 19.9815 16.3408L17.9454 15.3608Z" fill="#FD8700"/>
<path d="M29.9706 3.2522C29.9706 3.2522 23.9981 13.3339 21.6297 24.963C21.6297 24.963 20.2647 27.0729 18.0911 27.9045C15.9175 28.736 24.8623 8.7129 29.9706 3.2522Z" fill="#FD8700"/>
<path d="M14.1431 21.8652C14.1431 21.8652 11.3426 26.9966 11.1348 29.4C11.1348 29.4 13.3804 29.5777 14.8436 29.0364C14.8436 29.0364 15.0941 25.8095 16.901 22.7604L14.1431 21.8652Z" fill="#FD8700"/>
<path d="M60 27.8801H67.8564V16.5282H68.1494L73.6374 25.4375L77.5246 25.4799L83.1239 16.1809H83.2778V27.8801H91.2733V2H84.0716L75.811 15.7243L75.5458 15.7374L67.2164 2L60 2.02772V27.8801Z" fill="white"/>
<path d="M42.6567 28.5534C38.4945 28.5534 35.1032 27.3696 32.4827 25.0004C29.8607 22.6313 28.5513 19.5446 28.5513 15.7389C28.5513 11.7213 29.8819 8.47157 32.5433 5.98988C35.2046 3.50818 38.7318 2.26733 43.1232 2.26733C47.2707 2.26733 50.6261 3.45437 53.1859 5.83008C55.7458 8.20579 57.0257 11.3364 57.0257 15.2237C57.0257 19.2185 55.6983 22.4372 53.0435 24.883C50.3887 27.3305 46.9254 28.5534 42.6567 28.5534ZM42.9399 7.19485C40.6436 7.19485 38.8186 7.94817 37.4683 9.45479C36.1163 10.9614 35.442 12.9556 35.442 15.4373C35.442 17.9548 36.1179 19.9457 37.4683 21.41C38.8186 22.8758 40.5895 23.608 42.7779 23.608C45.0349 23.608 46.8239 22.8954 48.148 21.4719C49.4722 20.0485 50.1334 18.0722 50.1334 15.5433C50.1334 12.9083 49.4918 10.8587 48.2086 9.39283C46.9254 7.92697 45.1692 7.19485 42.9399 7.19485Z" fill="white"/>
</svg>
